          <svg viewBox="0 0 1150 1150" fill="none" xmlns="http://www.w3.org/2000/svg">
            <path d="M403.5 115.5C423.51 52.4458 522.563 30.4715 558.5 82.0001C545.302 97.6717 540.488 109.54 535.5 135C528.851 164.145 520.893 174.444 499.5 182.5C524.637 189.449 541.034 166.696 563 105.5V286C538.69 241.793 509.228 217.952 452.5 196.5C452.5 196.5 383.49 178.554 403.5 115.5Z" stroke="#DDA97B"  strokeWidth="2"/>
            <path d="M215.5 217.5C262.333 141.1 299.734 120.266 395.5 140.5C395.967 172.671 400.913 189.51 437.5 212.5C417.011 218.248 405.978 223.165 387 234.5C329.215 263.269 293.967 264.828 222 221C283.791 284.777 323.553 289.407 402 251.5C390.52 274.2 388.165 286.748 387 309C384.924 345.093 378.271 357.242 359 368C385.483 365.358 395.843 354.422 402 309C409.528 262.503 419.573 242.404 454.5 224C525.816 248.474 547.306 281.368 562 364.5C535.178 362.72 518.558 369.609 487 391.5C417.076 433.628 376.938 436.714 321.5 405C292.706 384.074 276.628 376.33 248 365.5C216.372 352.842 203.434 342.071 198.5 309C195.483 274.31 199.347 254.385 215.5 217.5Z" stroke="#DDA97B"  strokeWidth="2"/>
            <path d="M255 392.5C284.669 407.115 298.808 416.681 319.5 436.5C311.796 442.994 307.408 447.054 299.5 455C271.322 474.618 250.499 477.857 205.5 471.5C163.985 467.323 150.99 475.362 140 502C153.513 483.668 167.404 479.812 205.5 486.5C246.968 495.28 268.303 494.623 299.5 473.5C291.947 490.491 290.373 500.142 290.5 517.5C286.255 587.154 270.363 619.669 205.5 660C193.614 653.034 186.306 649.797 172 645.5C159.539 641.729 151.782 638.502 135 628.5C122.558 619.562 116.601 612.243 110.5 589C75.5138 449.807 85.8239 386.443 193 317C198.497 352.593 205.513 371.261 255 392.5Z" stroke="#DDA97B" strokeWidth="2"/>
            <path d="M492.5 415C524.987 388.62 540.726 379.322 563 375.5V527C538.184 528.439 524.862 527.063 503 517.5C488.847 510.438 481.311 505.254 470 489.5C451.887 463.831 443.077 454.31 429.5 445C454.781 437.951 468.627 431.486 492.5 415Z" stroke="#DDA97B" strokeWidth="2"/>
            <path d="M74.5001 779.5C65.4113 710.349 72.3486 667.658 105 585C105.921 623.189 109.625 643.806 169 667.5C215.163 689.231 234.053 701.962 251 726C215.494 768.218 188.283 774.894 130.5 766C103.771 761.326 91.5658 764.403 74.5001 779.5Z" stroke="#DDA97B"  strokeWidth="2"/>
            <path d="M542.5 715.5C548.807 733.474 554.365 740.799 566 751.5V857C545.934 857.631 536.5 856.715 522.5 852.5C500.311 844.545 487.95 832.939 456 786C465.503 817.363 473.694 832.814 493.5 857C467.796 855.125 454.615 851.502 435 837C417.925 821.639 408.672 810.898 393 786C422.536 781.195 438.841 773.511 467.5 751.5C496.987 728.281 513.456 718.333 542.5 715.5Z" stroke="#DDA97B"  strokeWidth="2"/>
            <path d="M282 744C267.842 703.439 254.226 686.323 219.5 666.5C289.675 636.969 308.985 602.482 309.5 511.5C310.637 482.063 313.743 467.648 330 451C348.316 482.16 353.62 507.265 360.5 556C368.847 499.647 368.582 470.741 345.5 431.5C372.72 443.687 387.787 448.674 413.5 446.5C426.496 454.777 433.693 464.504 446.5 484C477.51 532.644 502.914 544.187 563.5 535V712.5C524.727 608.135 483.282 585.7 380 599.5C468.825 608.152 501.204 633.619 537 705C514.552 702.012 500.93 704.184 472.5 723.5C419.787 724.137 394.692 707.566 356.5 653C334.769 629.918 322.385 628.078 300 639.5C325.825 636.07 337.569 647.159 356.5 676.5C381.905 721.611 403.683 733.058 452 736C387.974 776.182 350.623 775.949 282 744Z" stroke="#DDA97B"  strokeWidth="2"/>
            <path d="M376 787.5C389.13 809.759 395.774 818.541 407 831C383.592 824.717 366.916 828.435 332 845.5C259.007 883.294 216.23 878.924 137 831C205.135 904.936 249.27 916.738 343 863C389.289 839.43 404.262 837.023 418 845.5C451.918 873.558 470.351 873.388 503 867L521 878C492.806 898.18 485.477 919.515 471.5 956.5C506.373 905.851 526.253 888.937 562.5 886.5C562.648 974.266 560.576 1017.61 540 1049C534.09 1030.91 529.247 1020.51 515 1001C502.459 981.489 499.477 969.653 510 945C488.482 962.029 487.589 976.691 506 1012C519.858 1038.28 524.347 1050.18 529 1068.5C512.473 1087.18 498.557 1095.59 477.5 1104.5C421.463 1117.31 396.232 1113.85 350 1098.5C287.684 1068.88 264.303 1036.73 238.5 958C267.777 975.271 284.2 970.599 313.5 948.5C331.618 950.701 341.175 960.676 357.5 989C398.555 1051.76 428.984 1056.61 491.5 1031.5C434.861 1039.01 406.878 1030.87 368.5 978.5C355.266 957.386 345.638 949.111 323.5 942.5C364.687 914.393 392.598 914.912 448.5 936.5C401.056 900.654 374.209 881.432 300 940C275.732 957.949 266.957 959.896 254.5 958C212.917 944.907 190.234 933.439 151 905C107.188 865.291 89.9588 839.999 77 787.5C92.8478 773.085 108.144 775.703 137 783C201.695 790.652 228.009 780.76 254.5 734C269.172 754.87 275.332 778.276 285 827.5C290.004 799.386 290.671 783.614 285 755.5C319.452 778.698 339.224 787.163 376 787.5Z" stroke="#DDA97B"  strokeWidth="2"/>

            <path d="M894.5 166.5C847.235 123.51 813.637 119.736 745 138C736.766 93.5049 721.838 68.885 676 52C651.217 45.9415 637.313 46.6993 612.5 54.5C594.829 62.1923 588.277 69.5217 581.5 87.0001V198.5H653.5C659.333 190.102 663.683 188.097 673 188.5C685.467 191.078 689.659 195.425 691 209.5C690.336 222.119 685.921 225.891 673 228.5C663.508 229.324 659.286 227.088 653.5 219H581.5V351H778C783.297 342.219 788.273 340.337 799.5 341C810.852 344.664 813.832 349.601 815.5 361.5C814.661 374.116 810.568 377.841 799.5 381C788.154 381.519 783.248 379.715 778 371.5H581.5V417.5H725.5L800 498.5H938C944.045 489.878 948.809 488.21 958.5 488C971.697 490.702 976 500 976 509.5C976 519 971.493 526.186 960.5 529C948.721 529.42 943.445 527.717 938 519H790L715.5 438.5H581.5V489H676L730 557H777C783.28 548.836 788.115 546.801 799 547.5C810.525 550.351 813.851 554.832 815.261 567.053C814.596 581.225 810.641 584.652 799 586C787.692 586.28 782.627 584.381 777 575.5H721L666 508.5H581.5V554.5H616.5C622.953 547.591 627.918 546.246 639 548C651.668 552.327 655.5 561.5 655.5 569C655.5 576.5 650.286 583.871 639 587C625.46 587.821 620.479 585.41 616.5 575.5H581.5V623H751.5L825.5 706H988.5C994.354 698.16 998.683 695.945 1008 695.5C1020.05 697.279 1026 703.5 1026 715C1026 726.5 1021.59 733.054 1008 736C997.192 735.707 993.363 733.163 988.5 726.5H815.5L741.5 644.5H581.5V690H653.5C658.958 682.897 662.88 680.632 672.5 681C685.784 683.007 692 690.5 692 699.5C692 708.5 685.566 719.089 672.5 720.5C663.635 720.531 659.552 718.397 653.5 711.5H581.5V865H728.5C734.56 858.849 738.875 856.917 749 857.5C762.788 860.446 766 866.5 766 876.5C766 886.5 761.5 895.5 750.5 897C739.5 898.5 735.075 894.845 728.5 887H581.5V932H698C704.067 924.597 708.5 923 719 924C729.5 925 737 933.5 738 942C739 950.5 735.879 959.219 722.5 963C709.433 964.277 704.237 962.224 698 954.5H581.5C584.972 1004.97 589.97 1026.8 604 1054H688C693.575 1044.87 698.297 1042.69 709 1043C722.837 1046.07 724.589 1051.8 725.5 1063.5C725.592 1075.12 722.117 1079.25 710.5 1083C699.224 1084.05 694.549 1081.49 688 1073.5H618C642.844 1100.36 658.888 1113.1 706.5 1115C756.387 1114.51 781.435 1111.39 813.5 1093.5H788L728.5 1016.5H692C687.515 1025.28 683.163 1026.93 673.5 1026.5C659.119 1023.15 656.714 1017.92 656 1006.5C657.017 996.222 659.332 991.712 669.5 988C680.671 986.55 685.758 987.94 692 996H738L801 1073.5H843.5C858.392 1060.84 866.708 1050.7 881.5 1029H843.5C837.412 1036.07 832.718 1037.65 822.5 1037C810.54 1034.85 805 1028.5 804.5 1020C804 1011.5 808.767 1002.11 818 998.5C827.72 994.698 835.727 998.025 843.5 1006.5H891.5L904.5 969H801V882H932C937.427 873.799 941.5 871.682 950.5 872.5C959.5 873.318 968 883.5 968 894C968 904.5 959.5 913 950.5 913C941.5 913 935.826 910.189 932 903.5H821V949H932C991.153 920.067 1016.21 896.736 1050.5 846H821L769.5 780H640.5C635.698 786.255 630.5 789 622.5 789C614.5 789 605.185 782.198 604 772.5C602.684 759.681 609.5 750.5 618.5 749C627.5 747.5 634.547 750.128 640.5 758.5H779.5L831 825H1061C1067.59 807.175 1070.31 797.348 1074 780H904.5C899.884 786.335 896.286 788.336 888 789C875.38 786.93 870.643 783.579 867.5 772.5C867.536 761.283 869.4 756.213 878.5 751C890.974 747.634 896.598 749.428 904.5 758.5H1076.5C1079.12 709.713 1076.31 685.083 1066 644.5H849.5C845.949 653.225 841.67 655.941 829 656C817.386 653.713 813.855 649.706 811.5 639C811.709 627.173 814.594 622.661 823.5 617.5C834.273 615.127 839.315 616.395 846.5 623H1058C1052.28 605.385 1049.42 595.004 1040.5 582L1041.5 578H907C901.083 586.984 893 589 885 587.5C877 586 870.361 578.991 869.5 569.5C870.088 556.518 872.91 551.243 885 547.5C894.646 546.206 899.48 547.992 907 556H1045.5C1049.55 518.025 1052.49 496.784 1045.5 458H888C880.792 466.063 876.259 468.035 867.5 468C855.479 465.537 851.244 461.858 849.5 450C849.904 436.09 853.099 431.29 864 428C874.793 426.757 879.895 428.678 888 436.5H1041.5C1035.79 415.181 1032.42 404.511 1025.5 392H925C919.459 400.141 915.064 401.955 905.5 401.5C892.178 398.262 888.378 393.971 888 382C889.134 370.179 892.014 365.536 902.5 362C913.603 360.624 918.612 362.506 925 370.5H1013.5C1001.9 350.486 991.372 339.485 970 320H688.5C683.762 328.34 679.022 330.347 667.5 330C656.387 326.641 652.538 322.966 651.5 312C651.718 298.026 654.893 293.574 664.5 290C676.198 288.208 681.527 290.01 688.5 299H949.5C949.953 278.185 948.778 268.355 944.5 255H813C807.53 262.924 802.595 264.613 791 263.5C780.924 259.095 776.793 255.818 776 246.5C776.667 230.311 780.718 225.672 793 223.5C801.912 222.729 806.346 224.488 813 232.5H937.5C935.462 220.402 930.816 210.807 916 188.5H749.5L673 123H632C626.783 130.309 622.479 132.112 612.5 131.5C600.348 129.114 596.371 125.151 594.5 113C596.037 99.9292 598.903 94.9841 608.5 91.4999C620.685 89.7165 625.41 92.3728 632 100.5H679L756 166.5H894.5Z" stroke="#3CE0C3" strokeWidth="2"/>

          </svg>