<svg xmlns="http://www.w3.org/2000/svg" viewBox="0 0 64 64" width="30" height="30" role="img" aria-label="C sharp icon">
  <rect x="4" y="4" width="56" height="56" rx="10" ry="10" fill="#6F42C1"/>
  <path fill="#FFFFFF" transform="translate(-6, 2)" d="M34 16.2 c-8 0 -14 6 -14 14 s6 14 14 14 c3 0 5 -0.6 7 -1.8 v-4 c-2 1.4 -4 2 -7 2 c-6 0 -10 -4.5 -10 -10.2 S28 20 34 20 c3 0 5 0.6 7 2 v-4 c-2 -1.2 -4 -1.8 -7 -1.8 Z"/>
  <g transform="translate(42,23)">
    <rect x="-6" y="3" width="14" height="2.4" fill="#FFFFFF"/>
    <rect x="-6" y="12" width="14" height="2.4" fill="#FFFFFF"/>
    <rect x="-3.2" y="0" width="2.4" height="16.8" fill="#FFFFFF"/>
    <rect x="3.8" y="0" width="2.4" height="16.8" fill="#FFFFFF"/>
  </g>
</svg>