<svg width="1255" height="1000" viewBox="0 0 1255 1000" fill="none" xmlns="http://www.w3.org/2000/svg">
<g clip-path="url(#clip0_211_57)">
<!--stroke="#3CE0C3"  strokeWidth="2"-->
<!--columa1-->
<g class="col col-1">
<path d="M70 779.905L14 786.182V699.945L70 696.856V779.905Z"  />
<path d="M70 689.059L14 692.438V592.949L70 590.053V689.059Z"  />
<path d="M70 470.444V581.048L14 584.928V470.444H70Z"  />
<path d="M70 342V462H14V342H70Z"  />
<path d="M70 211.917V332.951L14 330.311V207.089L70 211.917Z"  />
<path d="M70 73.3633V200.4L14 195.09V65.1562L70 73.3633Z"  />
</g>
<g class="col col-2">
<path d="M143 771.102L87 777.186V693.634L143 690.639V771.102Z"  />
<path d="M143 683.016L87 686.292V589.891L143 587.082V683.016Z"  />
<path d="M143 471.112V578.29L87 582.053V471.112H143Z"  />
<path d="M143 346.575V462.864H87V346.575H143Z"  />
<path d="M143 220.448V337.74L87 335.18V215.767L143 220.448Z"  />
<path d="M143 86.1084V209.222L87 204.072V78.1514L143 86.1084Z"  />
</g>
<g class="col col-3">
<path d="M209 762.303L157 768.182V687.317L209 684.424V762.303Z"  />
<path d="M209 676.977L157 680.142V586.829L209 584.116V676.977Z"  />
<path d="M209 471.78V575.537L157 579.173V471.78H209Z"  />
<path d="M209 351.15V463.729H157V351.15H209Z"  />
<path d="M209 228.974V342.524L157 340.052V224.451L209 228.974Z"  />
<path d="M209 98.8457V218.034L157 213.061V91.1582L209 98.8457Z"  />
</g>
<g class="col col-4">
<path d="M272 754.494L223 760.178V681.879L272 679.081V754.494Z"  />
<path d="M272 671.804L223 674.865V584.498L272 581.875V671.804Z"  />
<path d="M272 473.009V573.501L223 577.016V473.009H272Z"  />
<path d="M272 356.108V465.145H223V356.108H272Z"  />
<path d="M272 237.703V347.685L223 345.293V233.331L272 237.703Z"  />
<path d="M272 111.596V227.04L223 222.23V104.162L272 111.596Z"  />
</g>
<g class="col col-5">
<path d="M333 747.666L286 753.176V677.198L333 674.485V747.666Z"  />
<path d="M333 667.36L286 670.328V582.628L333 580.085V667.36Z"  />
<path d="M333 474.358V571.895L286 575.302V474.358H333Z"  />
<path d="M333 360.832V466.664H286V360.832H333Z"  />
<path d="M333 245.84V352.592L286 350.273V241.602L333 245.84Z"  />
<path d="M333 123.37V235.427L286 230.764V116.164L333 123.37Z"  />
</g>
<g class="col col-6">
<path d="M391 739.849L347 745.172V671.638L391 669.018V739.849Z"  />
<path d="M391 662.053L347 664.919V580.026L391 577.569V662.053Z"  />
<path d="M391 475.147V569.574L347 572.865V475.147H391Z"  />
<path d="M391 365.173V467.631H347V365.173H391Z"  />
<path d="M391 253.772V357.124L347 354.884V249.679L391 253.772Z"  />
<path d="M391 135.132V243.621L347 239.117V128.17L391 135.132Z"  />
</g>
<g class="col col-7">
<path d="M445 734.003L403 739.169V667.712L445 665.169V734.003Z"  />
<path d="M445 658.342L403 661.123V578.616L445 576.231V658.342Z"  />
<path d="M445 476.618V568.4L403 571.596V476.618H445Z"  />
<path d="M445 369.662V469.253H403V369.662H445Z"  />
<path d="M445 261.316V361.776L403 359.603V257.341L445 261.316Z"  />
<path d="M445 145.93V251.388L403 247.016V139.173L445 145.93Z"/>
</g>
<g class="col col-8">
<path d="M497 727.167L457 732.168V662.909L497 660.447V727.167Z"  />
<path d="M497 653.764L457 656.456V576.476L497 574.167V653.764Z"  />
<path d="M497 477.528V566.513L457 569.604V477.528H497Z"  />
<path d="M497 373.769V470.323H457V373.769H497Z"  />
<path d="M497 268.655V366.056L457 363.952V264.809L497 268.655Z"  />
<path d="M497 156.716V258.965L457 254.732V150.177L497 156.716Z"  />
</g>
<g class="col col-9">
<path d="M546 721.324L509 726.16V658.981L546 656.602V721.324Z"  />
<path d="M546 650.054L509 652.657V575.063L546 572.831V650.054Z"  />
<path d="M546 478.999V565.341L509 568.331V478.999H546Z"  />
<path d="M546 378.258V471.945H509V378.258H546Z"  />
<path d="M546 276.197V370.707L509 368.673V272.477L546 276.197Z"  />
<path d="M546 167.51V266.728L509 262.634V161.185L546 167.51Z"  />
</g>
<g class="col col-10">
<path d="M593 715.477L557 720.161V655.057L593 652.751V715.477Z"  />
<path d="M593 646.34L557 648.863V573.654L593 571.492V646.34Z"  />
<path d="M593 480.47V564.166L557 567.063V480.47H593Z"  />
<path d="M593 382.747V473.567H557V382.747H593Z"  />
<path d="M593 283.741V375.36L557 373.39V280.138L593 283.741Z"  />
<path d="M593 178.311V274.495L557 270.532V172.184L593 178.311Z"  />
</g>
<g class="col col-11">
<path d="M637 710.329L604 714.854V651.743L637 649.517V710.329Z"  />
<path d="M637 643.237L604 645.673V572.753L637 570.664V643.237Z"  />
<path d="M637 482.333V563.497L604 566.295V482.333H637Z"  />
<path d="M637 387.504V475.574H604V387.504H637Z"  />
<path d="M637 291.425V380.274L604 378.37V287.944L637 291.425Z"  />
<path d="M637 189.111V282.391L604 278.562V183.195L637 189.111Z"  />
</g>
<g class="col col-12">
<path d="M680 705.472L648 709.853V648.696L680 646.54V705.472Z"  />
<path d="M680 640.389L648 642.748V572.073L680 570.051V640.389Z"  />
<path d="M680 484.364V563.039L648 565.749V484.364H680Z"  />
<path d="M680 392.377V477.749H648V392.377H680Z"  />
<path d="M680 299.174V385.302L648 383.459V295.804L680 299.174Z"  />
<path d="M680 199.923V290.349L648 286.642V194.194L680 199.923Z"  />
</g>
<g class="col col-13">
<path d="M723 700.611L691 704.858V645.652L723 643.562V700.611Z"  />
<path d="M723 637.539L691 639.826V571.396L723 569.436V637.539Z"  />
<path d="M723 486.396V562.579L691 565.204V486.396H723Z"  />
<path d="M723 397.249V479.922H691V397.249H723Z"  />
<path d="M723 306.926V390.332L691 388.545V303.66L723 306.926Z"  />
<path d="M723 210.74V298.312L691 294.72V205.188L723 210.74Z"  />
</g>
<g class="col col-14">
<path d="M766 695.752L734 699.863V642.607L766 640.584V695.752Z"  />
<path d="M766 634.689L734 636.903V570.717L766 568.82V634.689Z"  />
<path d="M766 488.427V562.117L734 564.66V488.427H766Z"  />
<path d="M766 402.121V482.096H734V402.121H766Z"  />
<path d="M766 314.676V395.36L734 393.632V311.515L766 314.676Z"  />
<path d="M766 221.557V306.273L734 302.796V216.182L766 221.557Z"  />
</g>
<g class="col col-15">
<path d="M806 690.903L777 694.854V639.557L806 637.613V690.903Z"  />
<path d="M806 631.847L777 633.974V570.034L806 568.211V631.847Z"  />
<path d="M806 490.458V561.665L777 564.107V490.458H806Z"  />
<path d="M806 406.994V484.27H777V406.994H806Z"  />
<path d="M806 322.419V400.385L777 398.723V319.38L806 322.419Z"  />
<path d="M806 232.36V314.226L777 310.882V227.193L806 232.36Z"  />
</g>
<g class="col col-16">
<path d="M845 686.047L817 689.854V636.512L845 634.638V686.047Z"  />
<path d="M845 628.999L817 631.049V569.354L845 567.598V628.999Z"  />
<path d="M845 492.489V561.205L817 563.561V492.489H845Z"  />
<path d="M845 411.866V486.443H817V411.866H845Z"  />
<path d="M845 330.168V405.412L817 403.811V327.238L845 330.168Z"  />
<path d="M845 243.172V322.184L817 318.962V238.192L845 243.172Z"  />
</g>
<g class="col col-17">
<path d="M883 681.174L854 684.865V633.346L883 631.53V681.174Z"  />
<path d="M883 626.013L854 628V568.409L883 566.705V626.013Z"  />
<path d="M883 494.081V560.459L854 562.741V494.081H883Z"  />
<path d="M883 416.122V488.169H854V416.122H883Z"  />
<path d="M883 337.126V409.817L854 408.264V334.287L883 337.126Z"  />
<path d="M883 253.006V329.34L854 326.218V248.18L883 253.006Z"  />
</g>
<g class="col col-18">
<path d="M921 676.306L892 679.869V630.18L921 628.425V676.306Z"  />
<path d="M921 623.028L892 624.947V567.461L921 565.815V623.028Z"  />
<path d="M921 495.673V559.714L892 561.919V495.673H921Z"  />
<path d="M921 420.378V489.895H892V420.378H921Z"  />
<path d="M921 344.081V414.221L892 412.721V341.338L921 344.081Z"  />
<path d="M921 262.834V336.493L892 333.477V258.173L921 262.834Z"/>
</g>
<g class="col col-19">
<path d="M959 671.437L930 674.875V627.013L959 625.32V671.437Z"  />
<path d="M959 620.044L930 621.895V566.514L959 564.926V620.044Z"  />
<path d="M959 497.265V558.97L930 561.096V497.265H959Z"  />
<path d="M959 424.634V491.62H930V424.634H959Z"  />
<path d="M959 351.036V418.624L930 417.177V348.391L959 351.036Z"  />
<path d="M959 272.663V343.646L930 340.736V268.167L959 272.663Z"  />
</g>
<g class="col col-20">
<path d="M995 666.573L968 669.87V623.843L995 622.22V666.573Z"  />
<path d="M995 617.062L968 618.838V565.562L995 564.039V617.062Z"  />
<path d="M995 498.856V558.23L968 560.268V498.856H995Z"  />
<path d="M995 428.89V493.346H968V428.89H995Z"  />
<path d="M995 357.984V423.021L968 421.635V355.449L995 357.984Z"  />
<path d="M995 282.482V350.791L968 348.001V278.172L995 282.482Z"  />
</g>
<g class="col col-21">
<path d="M1029 661.708L1003 664.871V620.674L1029 619.116V661.708Z"  />
<path d="M1029 614.08L1003 615.783V564.611L1029 563.151V614.08Z"  />
<path d="M1029 500.448V557.488L1003 559.443V500.448H1029Z"  />
<path d="M1029 433.146V495.072H1003V433.146H1029Z"  />
<path d="M1029 364.937V427.423L1003 426.093V362.504L1029 364.937Z"  />
<path d="M1029 292.307V357.939L1003 355.264V288.171L1029 292.307Z"  />
</g>
<g class="col col-22">
<path d="M1063 657.821L1037 660.876V618.263L1063 616.759V657.821Z"  />
<path d="M1063 611.827L1037 613.473V564.124L1063 562.714V611.827Z"  />
<path d="M1063 502.161V557.176L1037 559.064V502.161H1063Z"  />
<path d="M1063 437.167V496.9H1037V437.167H1063Z"  />
<path d="M1063 371.298V431.572L1037 430.288V368.948L1063 371.298Z"  />
<path d="M1063 301.158V364.473L1037 361.888V297.165L1063 301.158Z"  />
</g>
<g class="col col-23">
<path d="M1097 653.935L1071 656.88V615.852L1097 614.401V653.935Z"  />
<path d="M1097 609.574L1071 611.16V563.637L1097 562.277V609.574Z"  />
<path d="M1097 503.874V556.863L1071 558.686V503.874H1097Z"  />
<path d="M1097 441.188V498.729H1071V441.188H1097Z"  />
<path d="M1097 377.659V435.722L1071 434.483V375.394L1097 377.659Z"  />
<path d="M1097 310.011V371.005L1071 368.512V306.158L1097 310.011Z"  />
</g>
<g class="col col-24">
<path d="M1128 650.046L1104 652.875V613.314L1128 611.921V650.046Z"  />
<path d="M1128 607.19L1104 608.714V562.875L1128 561.568V607.19Z"  />
<path d="M1128 505.147V556.272L1104 558.021V505.147H1128Z"  />
<path d="M1128 444.593V500.109H1104V444.593H1128Z"  />
<path d="M1128 383.218V439.241L1104 438.052V381.042L1128 383.218Z"  />
<path d="M1128 317.865V376.719L1104 374.325V314.165L1128 317.865Z"  />
</g>
<g class="col col-25">
<path d="M1159 646.15L1135 648.879V610.78L1159 609.437V646.15Z"  />
<path d="M1159 604.803L1135 606.273V562.117L1159 560.857V604.803Z"  />
<path d="M1159 506.421V555.676L1135 557.363V506.421H1159Z"  />
<path d="M1159 447.997V501.49H1135V447.997H1159Z"  />
<path d="M1159 388.782V442.764L1135 441.616V386.683L1159 388.782Z"  />
<path d="M1159 325.729V382.442L1135 380.133V322.159L1159 325.729Z"  />
</g>
<g class="col col-26">
<path d="M1190 642.253L1166 644.883V608.246L1190 606.953V642.253Z"  />
<path d="M1190 602.415L1166 603.832V561.358L1190 560.146V602.415Z"  />
<path d="M1190 507.694V555.08L1166 556.706V507.694H1190Z"  />
<path d="M1190 451.401V502.87H1166V451.401H1190Z"  />
<path d="M1190 394.345V446.286L1166 445.18V392.322L1190 394.345Z"  />
<path d="M1190 333.592V388.165L1166 385.939V330.153L1190 333.592Z"  />
</g>

<!--columna reflejo 1-->
<g class="col-ref col-ref-1">
<path d="M72.4468 796.229L14.7317 801.856L43.8017 831.456L100.416 824.708L72.4468 796.229Z" />
<path d="M103.821 828.175L47.1057 834.82L80.7508 869.078L137.299 862.263L103.821 828.175Z" />
<path d="M178.601 904.318L141.119 866.153L84.2305 872.622L123.053 912.152L178.601 904.318Z" />
<path d="M222.954 949.477L182.226 908.008L126.678 915.841L167.406 957.311L222.954 949.477Z" />
<path d="M267.876 995.218L226.791 953.384L172.154 962.146L213.995 1004.75L267.876 995.218Z" />
<path d="M315.723 1043.94L272.563 999.991L218.849 1009.69L263.009 1054.66L315.723 1043.94Z" />
</g>
<g class="col-ref col-ref-2">
<path d="M145.834 787.017L88.2329 792.76L115.698 820.726L172.256 813.921L145.834 787.017Z" />
<path d="M175.554 817.278L118.9 823.985L150.701 856.365L207.196 849.496L175.554 817.278Z" />
<path d="M246.326 889.341L210.89 853.259L154.073 859.801L190.778 897.174L246.326 889.341Z" />
<path d="M288.344 932.122L249.834 892.91L194.286 900.744L232.796 939.955L288.344 932.122Z" />
<path d="M330.902 975.455L292.053 935.899L237.368 944.612L276.934 984.898L330.902 975.455Z" />
<path d="M376.23 1021.61L335.415 980.052L281.604 989.654L323.366 1032.18L376.23 1021.61Z" />
</g>
<g class="col-ref col-ref-3">
<path d="M212.273 778.778L158.763 784.087L184.568 810.362L237.098 804.055L212.273 778.778Z" />
<path d="M240.287 807.302L187.667 813.518L217.56 843.955L270.031 837.588L240.287 807.302Z" />
<path d="M306.912 875.14L273.591 841.213L220.817 847.272L255.331 882.414L306.912 875.14Z" />
<path d="M346.518 915.469L310.302 878.592L258.721 885.866L294.938 922.743L346.518 915.469Z" />
<path d="M386.631 956.312L350.094 919.11L299.326 927.211L336.535 965.098L386.631 956.312Z" />
<path d="M429.355 999.814L390.965 960.725L341.018 969.663L380.298 1009.66L429.355 999.814Z" />
</g>
<g class="col-ref col-ref-4">
<path d="M275.633 770.856L225.198 775.847L249.647 800.741L299.152 794.803L275.633 770.856Z"  />
<path d="M302.251 797.96L252.661 803.811L280.993 832.658L330.442 826.664L302.251 797.96Z"  />
<path d="M365.484 862.343L333.893 830.177L284.157 835.88L316.879 869.198L365.484 862.343Z"  />
<path d="M403.114 900.659L368.773 865.692L320.168 872.547L354.509 907.513L403.114 900.659Z"  />
<path d="M441.23 939.469L406.584 904.191L358.748 911.83L394.032 947.756L441.23 939.469Z"  />
<path d="M481.824 980.802L445.418 943.733L398.361 952.163L435.611 990.092L481.824 980.802Z"  />
</g>
<g class="col-ref col-ref-5">
<path d="M336.883 763.08L288.541 767.903L311.481 791.261L358.95 785.549L336.883 763.08Z"  />
<path d="M361.951 788.605L314.403 794.237L341.002 821.321L388.417 815.554L361.951 788.605Z"  />
<path d="M421.418 849.155L391.75 818.946L344.064 824.437L374.797 855.73L421.418 849.155Z"  />
<path d="M456.856 885.238L424.598 852.393L377.976 858.967L410.234 891.813L456.856 885.238Z"  />
<path d="M492.752 921.788L460.206 888.648L414.309 895.961L447.454 929.71L492.752 921.788Z"  />
<path d="M530.984 960.717L496.779 925.89L451.613 933.947L486.611 969.582L530.984 960.717Z"  />
</g>
<g class="col-ref col-ref-6">
<path d="M395.283 755.854L350.02 760.362L371.555 782.29L415.996 776.945L395.283 755.854Z"  />
<path d="M418.905 779.905L374.388 785.174L399.372 810.612L443.764 805.217L418.905 779.905Z"  />
<path d="M474.863 836.882L446.985 808.497L402.339 813.634L431.217 843.038L474.863 836.882Z"  />
<path d="M508.254 870.882L477.938 840.014L434.292 846.169L464.608 877.038L508.254 870.882Z"  />
<path d="M542.082 905.328L511.495 874.184L468.528 881.03L499.68 912.75L542.082 905.328Z"  />
<path d="M578.108 942.009L545.957 909.273L503.678 916.82L536.575 950.316L578.108 942.009Z"  />
</g>
<g class="col-ref col-ref-7">
<path d="M449.474 748.942L406.296 753.274L426.447 773.791L468.854 768.675L449.474 748.942Z"  />
<path d="M471.671 771.543L429.194 776.588L452.584 800.405L494.946 795.242L471.671 771.543Z"  />
<path d="M524.17 824.998L498.057 798.41L455.458 803.331L482.508 830.873L524.17 824.998Z"  />
<path d="M555.548 856.946L527.145 828.026L485.483 833.902L513.886 862.822L555.548 856.946Z"  />
<path d="M587.335 889.315L558.677 860.134L517.652 866.658L546.839 896.377L587.335 889.315Z"  />
<path d="M621.188 923.783L591.06 893.107L550.681 900.288L581.508 931.677L621.188 923.783Z"  />
</g>
<g class="col-ref col-ref-8">
<path d="M501.803 742.432L460.709 746.587L479.48 765.7L519.856 760.813L501.803 742.432Z"  />
<path d="M522.583 763.59L482.143 768.41L503.948 790.613L544.28 785.682L522.583 763.59Z"  />
<path d="M571.636 813.537L547.282 788.74L506.728 793.444L531.957 819.132L571.636 813.537Z"  />
<path d="M601.007 843.443L574.511 816.464L534.832 822.059L561.329 849.039L601.007 843.443Z"  />
<path d="M630.763 873.741L604.027 846.517L564.943 852.719L592.173 880.445L630.763 873.741Z"  />
<path d="M662.452 906.007L634.34 877.383L595.859 884.199L624.624 913.487L662.452 906.007Z"  />
</g>
<g class="col-ref col-ref-9">
<path d="M551.045 736.234L513.017 740.06L530.577 757.939L567.931 753.428L551.045 736.234Z"  />
<path d="M570.579 756.123L533.162 760.572L553.575 781.357L590.889 776.804L570.579 756.123Z"  />
<path d="M616.604 802.988L593.794 779.763L556.272 784.104L579.902 808.164L616.604 802.988Z"  />
<path d="M644.213 831.098L619.39 805.823L582.688 810.999L607.51 836.274L644.213 831.098Z"  />
<path d="M672.184 859.579L647.135 834.074L610.99 839.817L636.502 865.794L672.184 859.579Z"  />
<path d="M701.973 889.911L675.632 863.09L640.051 869.408L667.004 896.852L701.973 889.911Z"  />
</g>
<g class="col-ref col-ref-10">
<path d="M598.313 730.32L561.357 734.088L577.789 750.82L614.113 746.408L598.313 730.32Z"  />
<path d="M616.685 749.026L580.303 753.38L599.42 772.844L635.706 768.394L616.685 749.026Z"  />
<path d="M659.893 793.022L638.522 771.261L602.041 775.514L624.182 798.058L659.893 793.022Z"  />
<path d="M685.863 819.465L662.598 795.777L626.887 800.813L650.152 824.501L685.863 819.465Z"  />
<path d="M712.173 846.255L688.695 822.35L653.509 827.919L677.42 852.266L712.173 846.255Z"  />
<path d="M740.192 874.783L715.498 849.64L680.841 855.749L706.108 881.476L740.192 874.783Z"  />
</g>
<g class="col-ref col-ref-11">
<path d="M642.532 724.752L608.622 728.172L624.126 743.959L657.44 739.931L642.532 724.752Z"  />
<path d="M659.952 742.489L626.584 746.462L644.634 764.841L677.912 760.776L659.952 742.489Z"  />
<path d="M700.843 784.125L680.653 763.567L647.191 767.444L668.107 788.742L700.843 784.125Z"  />
<path d="M725.463 809.192L703.48 786.808L670.744 791.425L692.727 813.808L725.463 809.192Z"  />
<path d="M750.408 834.594L728.223 812.004L695.981 817.124L718.576 840.131L750.408 834.594Z"  />
<path d="M776.973 861.642L753.634 837.878L721.892 843.507L745.773 867.823L776.973 861.642Z"  />
</g>
<g class="col-ref col-ref-12">
<path d="M685.72 719.288L652.871 722.639L667.39 737.422L699.677 733.499L685.72 719.288Z"  />
<path d="M702.123 735.988L669.785 739.859L686.701 757.083L718.954 753.126L702.123 735.988Z"  />
<path d="M740.55 775.116L721.618 755.839L689.192 759.621L708.806 779.592L740.55 775.116Z"  />
<path d="M763.734 798.722L743.115 777.728L711.372 782.205L731.99 803.199L763.734 798.722Z"  />
<path d="M787.224 822.64L766.413 801.45L735.134 806.4L756.329 827.981L787.224 822.64Z"  />
<path d="M812.239 848.112L790.343 825.817L759.535 831.245L781.94 854.059L812.239 848.112Z"  />
</g>
<g class="col-ref col-ref-13">
<path d="M728.924 713.835L696.13 717.241L709.881 731.243L742.141 727.292L728.924 713.835Z"  />
<path d="M744.539 729.733L712.229 733.634L728.262 749.959L760.491 745.976L744.539 729.733Z"  />
<path d="M781.045 766.905L763.094 748.626L730.7 752.441L749.301 771.381L781.045 766.905Z"  />
<path d="M803.112 789.374L783.554 769.46L751.81 773.937L771.368 793.851L803.112 789.374Z"  />
<path d="M825.47 812.138L805.73 792.039L774.428 796.966L794.535 817.439L825.47 812.138Z"  />
<path d="M849.281 836.384L828.508 815.233L797.654 820.615L818.912 842.261L849.281 836.384Z"  />
</g>
<g class="col-ref col-ref-14">
<path d="M772.133 708.386L739.391 711.845L752.395 725.087L784.631 721.111L772.133 708.386Z"  />
<path d="M786.979 723.501L754.697 727.43L769.871 742.88L802.076 738.873L786.979 723.501Z"  />
<path d="M821.619 758.774L804.62 741.465L772.258 745.312L789.875 763.25L821.619 758.774Z"  />
<path d="M842.599 780.135L824.073 761.272L792.329 765.748L810.855 784.612L842.599 780.135Z"  />
<path d="M863.857 801.78L845.158 782.74L813.835 787.645L832.882 807.04L863.857 801.78Z"  />
<path d="M886.496 824.832L866.813 804.79L835.915 810.128L856.059 830.639L886.496 824.832Z"  />
</g>
<g class="col-ref col-ref-15">
<path d="M812.354 703.351L782.649 706.454L794.832 718.859L824.061 715.271L812.354 703.351Z"  />
<path d="M826.355 717.605L797.083 721.148L811.313 735.638L840.513 732.021L826.355 717.605Z"  />
<path d="M858.945 750.79L842.992 734.546L813.645 738.014L830.177 754.847L858.945 750.79Z"  />
<path d="M878.73 770.935L861.338 753.226L832.57 757.283L849.962 774.992L878.73 770.935Z"  />
<path d="M898.78 791.35L881.225 773.475L852.851 777.933L870.733 796.141L898.78 791.35Z"  />
<path d="M920.13 813.088L901.648 794.269L873.672 799.133L892.587 818.393L920.13 813.088Z"  />
</g>
<g class="col-ref col-ref-16">
<path d="M851.582 698.449L822.933 701.477L834.215 712.965L862.421 709.485L851.582 698.449Z"  />
<path d="M864.655 711.759L836.409 715.198L849.603 728.633L877.782 725.125L864.655 711.759Z"  />
<path d="M894.993 742.65L880.189 727.577L851.874 730.945L867.217 746.567L894.993 742.65Z"  />
<path d="M913.467 761.462L897.321 745.022L869.545 748.939L885.691 765.379L913.467 761.462Z"  />
<path d="M932.188 780.523L915.888 763.926L888.48 768.217L905.084 785.123L932.188 780.523Z"  />
<path d="M952.125 800.825L934.96 783.346L907.922 788.015L925.491 805.904L952.125 800.825Z"  />
</g>
<g class="col-ref col-ref-17">
<path d="M887.537 693.695L857.723 696.916L868.313 707.623L897.706 703.976L887.537 693.695Z"  />
<path d="M899.901 706.195L870.469 709.804L882.867 722.338L912.234 718.665L899.901 706.195Z"  />
<path d="M928.51 735.12L914.592 721.048L885.095 724.59L899.525 739.179L928.51 735.12Z"  />
<path d="M945.982 752.785L930.793 737.428L901.807 741.487L916.997 756.844L945.982 752.785Z"  />
<path d="M963.687 770.684L948.353 755.181L919.716 759.592L935.338 775.387L963.687 770.684Z"  />
<path d="M982.542 789.748L966.39 773.418L938.104 778.184L954.639 794.901L982.542 789.748Z"  />
</g>
<g class="col-ref col-ref-18">
<path d="M926.058 688.949L896.294 692.22L906.182 702.218L935.551 698.546L926.058 688.949Z"  />
<path d="M937.699 700.717L908.293 704.352L919.884 716.071L949.229 712.375L937.699 700.717Z"  />
<path d="M964.553 727.868L951.53 714.702L922.063 718.274L935.567 731.927L964.553 727.868Z"  />
<path d="M981.003 744.501L966.785 730.126L937.799 734.185L952.018 748.56L981.003 744.501Z"  />
<path d="M997.674 761.354L983.319 746.841L954.66 751.231L969.287 766.019L997.674 761.354Z"  />
<path d="M1015.43 779.302L1000.3 764.009L971.973 768.735L987.458 784.391L1015.43 779.302Z"  />
</g>
<g class="col-ref col-ref-19">
<path d="M964.581 684.201L934.867 687.523L944.017 696.774L973.361 693.078L964.581 684.201Z"  />
<path d="M975.46 695.199L946.082 698.861L956.824 709.722L986.146 706.003L975.46 695.199Z"  />
<path d="M1000.47 720.485L988.39 708.272L958.954 711.875L971.484 724.544L1000.47 720.485Z"  />
<path d="M1015.85 736.031L1002.65 722.688L973.662 726.747L986.86 740.09L1015.85 736.031Z"  />
<path d="M1031.43 751.785L1018.1 738.311L989.422 742.68L1003 756.409L1031.43 751.785Z"  />
<path d="M1048.02 768.559L1033.97 754.358L1005.6 759.04L1019.99 773.581L1048.02 768.559Z"  />
</g>
<g class="col-ref col-ref-20">
<path d="M1001.11 679.74L973.438 682.828L981.982 691.466L1009.31 688.027L1001.11 679.74Z"  />
<path d="M1011.37 690.111L984.011 693.519L994.053 703.672L1021.36 700.212L1011.37 690.111Z"  />
<path d="M1034.86 713.861L1023.55 702.429L996.142 705.782L1007.87 717.64L1034.86 713.861Z"  />
<path d="M1049.35 728.513L1036.99 716.018L1010 719.797L1022.36 732.292L1049.35 728.513Z"  />
<path d="M1064.04 743.363L1051.56 730.745L1024.86 734.814L1037.58 747.673L1064.04 743.363Z"  />
<path d="M1079.68 759.176L1066.52 745.871L1040.11 750.235L1053.58 763.858L1079.68 759.176Z"  />
</g>
<g class="col-ref col-ref-21">
<path d="M1035.64 675.552L1009.01 678.551L1016.84 686.468L1043.15 683.144L1035.64 675.552Z"  />
<path d="M1045.16 685.179L1018.83 688.474L1028.05 697.8L1054.33 694.456L1045.16 685.179Z"  />
<path d="M1066.87 707.131L1056.47 696.619L1030.09 699.864L1040.88 710.77L1066.87 707.131Z"  />
<path d="M1080.33 720.735L1068.95 709.235L1042.96 712.874L1054.34 724.374L1080.33 720.735Z"  />
<path d="M1093.96 734.522L1082.48 722.908L1056.75 726.816L1068.46 738.653L1093.96 734.522Z"  />
<path d="M1108.48 749.203L1096.37 736.953L1070.91 741.134L1083.32 753.68L1108.48 749.203Z"  />
</g>
<g class="col-ref col-ref-22">
<path d="M1070.05 671.254L1043.47 674.291L1050.76 681.662L1077.04 678.319L1070.05 671.254Z"  />
<path d="M1079.02 680.318L1052.71 683.633L1061.31 692.331L1087.57 688.969L1079.02 680.318Z"  />
<path d="M1099.38 700.904L1089.67 691.09L1063.31 694.356L1073.39 704.543L1099.38 700.904Z"  />
<path d="M1112.05 713.711L1101.42 702.967L1075.43 706.606L1086.06 717.351L1112.05 713.711Z"  />
<path d="M1124.89 726.693L1114.15 715.842L1088.41 719.734L1099.35 730.795L1124.89 726.693Z"  />
<path d="M1138.56 740.518L1127.23 729.066L1101.75 733.215L1113.35 744.945L1138.56 740.518Z"  />
</g>
<g class="col-ref col-ref-23">
<path d="M1104.46 666.951L1077.92 670.029L1084.6 676.785L1110.86 673.422L1104.46 666.951Z"  />
<path d="M1112.8 675.38L1086.51 678.717L1094.42 686.708L1120.66 683.327L1112.8 675.38Z"  />
<path d="M1131.64 694.425L1122.71 685.398L1096.38 688.691L1105.65 698.064L1131.64 694.425Z"  />
<path d="M1143.42 706.338L1133.64 696.446L1107.65 700.085L1117.43 709.977L1143.42 706.338Z"  />
<path d="M1155.36 718.412L1145.48 708.419L1119.72 712.294L1129.8 722.481L1155.36 718.412Z"  />
<path d="M1168.08 731.268L1157.64 720.717L1132.12 724.83L1142.81 735.64L1168.08 731.268Z"  />
</g>
<g class="col-ref col-ref-24">
<path d="M1135.88 663.07L1111.37 665.911L1117.49 672.089L1141.73 668.985L1135.88 663.07Z"  />
<path d="M1143.63 670.905L1119.36 673.985L1126.61 681.311L1150.83 678.19L1143.63 670.905Z"  />
<path d="M1161.04 688.506L1152.84 680.214L1128.53 683.254L1137.05 691.865L1161.04 688.506Z"  />
<path d="M1171.99 699.577L1162.99 690.483L1139 693.842L1148 702.936L1171.99 699.577Z"  />
<path d="M1183.09 710.801L1174 701.613L1150.22 705.19L1159.49 714.558L1183.09 710.801Z"  />
<path d="M1194.91 722.75L1185.31 713.043L1161.75 716.841L1171.59 726.787L1194.91 722.75Z"  />
</g>
<g class="col-ref col-ref-25">
<path d="M1167.3 659.192L1142.83 662.068L1148.44 667.739L1172.67 664.618L1167.3 659.192Z"  />
<path d="M1174.53 666.507L1150.28 669.607L1156.95 676.349L1181.17 673.213L1174.53 666.507Z"  />
<path d="M1190.69 682.84L1183.13 675.196L1158.84 678.257L1166.7 686.199L1190.69 682.84Z"  />
<path d="M1200.91 693.173L1192.61 684.779L1168.62 688.139L1176.92 696.532L1200.91 693.173Z"  />
<path d="M1211.27 703.648L1202.88 695.168L1179.09 698.731L1187.65 707.379L1211.27 703.648Z"  />
<path d="M1222.3 714.802L1213.43 705.837L1189.85 709.605L1198.94 718.794L1222.3 714.802Z"  />
</g>
<g class="col-ref col-ref-26">
<path d="M1198.72 655.318L1174.29 658.228L1179.4 663.394L1203.61 660.255L1198.72 655.318Z"  />
<path d="M1205.44 662.108L1181.21 665.226L1187.3 671.386L1211.5 668.234L1205.44 662.108Z"  />
<path d="M1220.34 677.176L1213.42 670.178L1189.16 673.26L1196.35 680.535L1220.34 677.176Z"  />
<path d="M1229.84 686.772L1222.23 679.079L1198.23 682.438L1205.84 690.132L1229.84 686.772Z"  />
<path d="M1239.46 696.501L1231.77 688.727L1207.96 692.275L1215.81 700.206L1239.46 696.501Z"  />
<path d="M1249.7 706.859L1241.57 698.634L1217.95 702.373L1226.29 710.805L1249.7 706.859Z"  />
</g>
</g>
<defs>
<clipPath id="clip0_211_57">
<rect width="1255" height="1000" fill="white"/>
</clipPath>
</defs>
</svg>
