<svg width="375" height="372" viewBox="0 0 375 372" fill="none" xmlns="http://www.w3.org/2000/svg">
<path d="M61 271.5C110.597 180.313 138.403 129.187 188 38C234.472 129.187 260.528 180.313 307 271.5M61 271.5V302H92M61 271.5H92M307 271.5V302H277H188V271.5M307 271.5H188M188 92.5V121.5M188 92.5L92 271.5M188 92.5L265.5 245.5H249.543M92 271.5V302M92 302L188 121.5M188 121.5L249.543 245.5M188 271.5L206 245.5H249.543" stroke="#3CE0C3"/>
<path d="M188 38L61 271.5H91.5L188 92.5L265.5 245.5H205.5L188 271.5H307L188 38Z" stroke="#3CE0C3"/>
</svg>
