<svg width="375" height="372" viewBox="0 0 375 372" fill="none" xmlns="http://www.w3.org/2000/svg">
<path d="M61 271.5L188 38M61 271.5V302M61 271.5H77.3439M188 38L307 271.5M188 38V65M307 271.5V302M307 271.5H291.686M188 92.5L92 271.5M188 92.5V121.5M188 92.5L265.5 245.5M92 271.5V302M92 271.5H77.3439M61 302H92M61 302L77.3439 271.5M92 302L188 121.5M188 121.5L249.543 245.5M307 302H277H188M307 302L291.686 271.5M188 65L291.686 271.5M188 65L77.3439 271.5M188 271.5V302M188 271.5L206 245.5M188 271.5H206M188 302L206 271.5M206 245.5V271.5M206 245.5H249.543M265.5 245.5V271.5M265.5 245.5H249.543M265.5 271.5H277H291.686M265.5 271.5H206M265.5 271.5L249.543 245.5" stroke="#3CE0C3"/>
</svg>
