<svg xmlns="http://www.w3.org/2000/svg" width="1275" height="953" viewBox="0 0 1275 953" fill="none">
<path stroke="#8400FF" stroke-width="2" d="M1188.5 177v45.5c-11.35-7.671-17.92-11.016-30-15.5-13.13-3.881-20-5.5-34.5-5.5-12 2-28.37-.985-28.5-1.5-33-7.5-65.5-25.5-81-39S971 126 971 126h170c15.17 4.624 22.94 9.146 35 22 8.05 11.471 10.75 17.809 12.5 29ZM86.5 178.5v47c8.61-9.011 15.908-12.135 28.5-17 15.803-3.782 24.98-4.913 42-5 33.099-5.403 50.562-11.131 80-25.5 11.55-6.438 17.447-10.228 26.5-17.5l40.5-33H134c-15.171 4.624-22.942 9.146-35 22-8.053 11.471-10.748 17.809-12.5 29Z"/>
<path stroke="#3CE0C3" stroke-width="2" d="M362.539 97H911.5c29.385 2.993 75.5 40 100 61.5s77.89 46.991 108.5 43.5 86.38 17.07 98.5 61.5c20.89 81.668 26.92 180.98 35.43 387.759a10 10 0 0 1-.45 3.402c-31.74 100.495-110.85 126.606-305.28 145.177-1.107.106-2.224.385-3.213.893-3.424 1.759-5.672 3.708-8.788 6.989a10.3 10.3 0 0 1-2.769 2.087C850.443 852.314 781.368 861.289 638 863c-163.741-7.184-235.666-16.937-294.548-53.407a10.2 10.2 0 0 1-1.752-1.381c-6.174-6.026-10.618-8.838-22.324-8.261-.58.029-1.183.014-1.76-.051-203.553-23.058-271.89-53.614-291.877-145.783a10 10 0 0 1-.22-2.262c3.494-220.857 9.417-315.023 32.196-386.958.19-.6.443-1.188.746-1.741 25.292-46.183 46.949-58.78 97.039-59.656 0 0 63.5-6.5 108-43 44.013-36.101 66.336-56.501 96.981-63.28a9.5 9.5 0 0 1 2.058-.22Z"/>
<path stroke="#1E1E1E" stroke-width="2" d="M302.5 246c8.992-42.652 31.218-59.032 100-75.5 177.567-20.809 279.132-20.665 464 0 33.765 5.13 46.748 7.43 73.5 24.5 27.131 19.182 32.193 33.563 34.428 51.317L976.5 639c-7.925 47.97-22.337 68.535-65 94.5-85.914 33.889-145.488 41.657-267.5 40-150.604-.603-210.682-7.323-273-40-48.116-27.952-62.888-48.357-68.5-94.5z"/>
<path stroke="#C7E03C" stroke-width="2" d="M146.5 249.5H208v61h62V372h-62v62h-61.5v-62H86v-61.5h60.5z"/>
<circle cx="1052.5" cy="418.5" r="46.5" stroke="#E03C3C" stroke-width="2"/>
<path stroke="#2C9885" stroke-width="2" d="M125.5 498 256 562.5c6.045 4.56 8.663 7.853 11.5 15.5 2.736 9.324 1.762 14.719-2.5 24.5-6.45 8.372-10.875 11.202-19 13.5-8.137.968-11.868 1.29-18.5-1L95 547.5c-10.402-7.698-11.5-27-3-40s16.827-13.915 33.5-9.5ZM125.606 590.139l130.5 64.5c6.045 4.56 8.663 7.853 11.5 15.501 2.736 9.323 1.762 14.719-2.5 24.5-6.45 8.372-10.875 11.202-19 13.5-8.137.967-11.868 1.29-18.5-1.001l-132.5-67.5C84.704 631.941 81.5 612.5 90 599.5s18.933-13.776 35.606-9.361Z"/>
<path stroke="#007BFF" stroke-width="2" d="m1154.5 479-124 62.5c-5.5 4.019-7 7.81-7 15.5.46 5.504 1.92 8.193 6 12.5 3.37 2.875 6.18 3.023 12 2l129-64.5c4.53-3.834 5.21-6.21 6-10.5.82-7.58-.14-11.325-7.5-16-5.57-3.183-8.76-3.179-14.5-1.5ZM1155 540.117l-124 62.5c-5.5 4.019-7 7.81-7 15.5.46 5.504 1.92 8.193 6 12.5 3.37 2.875 6.18 3.023 12 2l129-64.5c4.53-3.834 5.21-6.209 6-10.5.82-7.58-.14-11.325-7.5-16-5.57-3.183-8.76-3.179-14.5-1.5ZM1155 601.117l-124 62.5c-5.5 4.019-7 7.81-7 15.5.46 5.504 1.92 8.193 6 12.5 3.37 2.875 6.18 3.023 12 2l129-64.5c4.53-3.834 5.21-6.209 6-10.5.82-7.58-.14-11.325-7.5-16-5.57-3.183-8.76-3.179-14.5-1.5Z"/>
<path fill="#fff" d="M603.448 260.2c0 13.8-4.9 25.4-24.5 25.4s-24.5-11.6-24.5-25.4v-6h16v6c0 6.8 1.6 10.7 7.5 10.7s7.5-3.9 7.5-10.7v-47.7h18zm60.069 23.8v-71.5h34.7c14.9 0 24.2 7.8 24.2 22.8s-9.3 22.8-24.2 22.8h-16.7V284zm18-56.8v16.2h12.9c6.2 0 10-2.1 10-8.1s-3.8-8.1-10-8.1z"/>
<circle cx="634" cy="250" r="23" stroke="#3CE0C3" stroke-width="2"/>
<circle cx="1147.5" cy="327.5" r="46.5" stroke="#E03C3C" stroke-width="2"/>
<circle cx="239" cy="679" r="30" stroke="#757676" stroke-width="2"/>
<circle cx="239" cy="587" r="30" stroke="#757676" stroke-width="2"/>
<path stroke="#CCC" stroke-opacity=".8" d="m239.775 587.446-125-63"/>
<path stroke="#CCC" d="m238.775 679.446-125-63"/>
<path stroke="#FF7328" stroke-width="2" d="M189.258 289.5h-22.516L178 270zM166.742 395.5h22.516L178 415zM124.5 330.742v22.516L105 342zM231.5 353.258v-22.516L251 342z"/>
</svg>