<svg width="100" height="13" viewBox="0 0 100 13" fill="none" xmlns="http://www.w3.org/2000/svg">
<g clip-path="url(#clip0_117_1676)">
<path d="M50 1C63.778 1 76.233 1.72634 85.2266 2.89551C89.7305 3.48102 93.3271 4.17268 95.7773 4.92578C97.0096 5.30453 97.8933 5.68161 98.4482 6.03418C98.8292 6.27623 98.9477 6.43775 98.9844 6.5C98.9477 6.56225 98.8292 6.72377 98.4482 6.96582C97.8933 7.31839 97.0096 7.69547 95.7773 8.07422C93.3271 8.82732 89.7305 9.51898 85.2266 10.1045C76.233 11.2737 63.778 12 50 12C36.222 12 23.767 11.2737 14.7734 10.1045C10.2695 9.51898 6.67291 8.82732 4.22266 8.07422C2.99045 7.69547 2.10673 7.31839 1.55176 6.96582C1.16993 6.72321 1.05104 6.56194 1.01465 6.5C1.05104 6.43806 1.16993 6.27679 1.55176 6.03418C2.10673 5.68161 2.99045 5.30453 4.22266 4.92578C6.67291 4.17268 10.2695 3.48102 14.7734 2.89551C23.767 1.72634 36.222 1 50 1Z" fill="black"/>
</g>
<defs>
<clipPath id="clip0_117_1676">
<rect width="100" height="13" fill="white"/>
</clipPath>
</defs>
</svg>
