<svg viewBox="0 0 1262 1150" fill="none" xmlns="http://www.w3.org/2000/svg">
<path d="M187 704V142C187 130.954 195.954 122 207 122H1055C1066.05 122 1075 130.954 1075 142V704C1075 715.046 1066.05 724 1055 724H207C195.954 724 187 715.046 187 704Z" stroke="#3CE0C3" strokeWidth="2"/>
<path d="M29.1617 1063.18L180.507 755.18C183.869 748.336 190.831 744 198.457 744H1061.62C1069.21 744 1076.14 748.289 1079.52 755.076L1233.08 1063.08C1239.71 1076.37 1230.04 1092 1215.18 1092H47.1117C32.3045 1092 22.6315 1076.47 29.1617 1063.18Z" stroke="#3CE0C3" strokeWidth="2"/>
<path d="M477.504 1022.38L489.804 980.379C492.3 971.856 500.117 966 508.998 966H755.415C764.237 966 772.017 971.78 774.563 980.226L787.228 1022.23C791.099 1035.06 781.489 1048 768.08 1048H496.697C483.355 1048 473.753 1035.18 477.504 1022.38Z" stroke="#757676" strokeWidth="2"/>
<path d="M238 650V196C238 184.954 246.954 176 258 176H1002C1013.05 176 1022 184.954 1022 196V650C1022 661.046 1013.05 670 1002 670H258C246.954 670 238 661.046 238 650Z" stroke="#8400FF" strokeWidth="2"/>
<path d="M188.97 900.463L237.589 797.463C240.893 790.464 247.937 786 255.676 786H1006.98C1014.64 786 1021.62 790.371 1024.97 797.258L1075.03 900.258C1081.49 913.541 1071.81 929 1057.04 929H207.057C192.386 929 182.708 913.73 188.97 900.463Z" stroke="#757676" strokeWidth="2"/>
</svg>
