<svg xmlns="http://www.w3.org/2000/svg" viewBox="0 0 1150 1150">

  <path fill="transparent" stroke="#3CE0C3" strokeWidth="2"
    d="M325 1085c1.143-6.28 2.647-8.19 7.5-9.5 164.908 6.36 257.856 5.49 424.5-4 53.819-4.63 84.498-11.91 140-32.5 28.069-14.34 41.912-22.81 63-39 6.915.21 9.668 2.31 11 12.5-16.124 37.51-33.989 51.78-74 71-57.61 19.58-96.78 26.18-176 32-89.437 4.64-140.368 4.52-232.5 0-18.835.43-100-8-156-21-5.26-2.59-7.091-4.57-7.5-9.5Z"
    filter="url(#a)" />

  <path fill="transparent" stroke="#3CE0C3" strokeWidth="2"
    d="M346 943c.212 4.751-.518 7.005-4 10-60.694 12.625-90 23.5-90 29.5-1 8.5 78.181 21.63 240 33.5 184.255 1.06 272.194-8.59 398-46.5 7.441-5.441 9.793-8.699 5.5-15.5-2.67-4.296-2.355-6.706 0-11 4.321-1.756 6.599-1.569 10.5 0 8.987 4.067 12.689 7.702 17.5 16 4.753 16.713 2.945 22.66-4.5 31-48.575 37.95-115.964 55.86-297 72.5-106.755 7.22-170.006 3.66-280-3.5-125.628-12.88-171.026-25.82-172-67 5.623-36.552 47.289-47.862 172-56 2.693 2.045 3.503 3.622 4 7Z"
    filter="url(#a)" />

  <path fill="transparent" stroke="#3CE0C3" strokeWidth="2"
    d="M428 860c9.274 4.551 7.52 10.14 5.5 12s-5.476 3.756-4 8c.052 8.866 156.932 23.913 248-.5 5.83.001 8.93-.797 14 2.5l53 32c3.926 5.703 3.265 8.302 0 12.5.134 7.302-128.677 41.264-188.5 37.5-91.004-5.247-123.442-10.255-154-23-2.104.278-40.822-19.137-39-43.5-1.723-25.354 55.726-42.052 65-37.5ZM391.498 772c0 8 155.686 27.186 313.001-9 6.943-1.115 10.62-.767 16 5l43 29c2.706 5.813 2.61 7.129 0 11.5C568.911 850.839 485.186 856.121 386 829c-44.134-17.474-54.532-26.366-53.5-41 2.228-18.683 16.222-30.124 66.998-42 3.228.021 4.758 1.074 7 5 1.48 4.205 1.329 5.873 0 7.5-5.139 4.271-15 5.5-15 13.5ZM350 669c-3.131 8.855 247.069 27.662 432.5-13 16.554-2.805 14.604 15.374 11.5 18 0 0-93.5 67-276 67s-256.597-14.569-261.5-67c5.683-37.769 52.745-48.048 184.5-54.5 8.453 4.92 6 12 0 15s-93.24 29.405-91 34.5ZM906 682c-11.697-29.975-39.762-34.659-92.5-41.5-3.961-2.058-5.126-3.833-5.5-8 .832-3.726 5.5-8 5.5-8 52.379-23.061 78.214-26.863 116.5-13.5 28.42 18.258 38.223 33.902 47 71 5.074 35.334-1.767 53.004-25.5 81-48.523 40.078-81.317 55.372-148.5 71.5-5.228-.874-7.51-2.103-10-6-.396-3.776.401-6.061 4-10 82.469-66.597 121.415-101.504 109-136.5Z"
    filter="url(#a)" />

  <path fill="transparent" stroke="#FF7B8A" strokeWidth="2"
    d="M773.5 258c11.848-.94 12.835 2.181 9.5 11-101.158 78.3-148.278 128.437-137.5 166 10.779 37.563 44.03 50.369 51 105.5 1.407 40.121-13.492 65.791-66.5 117-14.728 7.944-18.963 5.808-15-14 13.912-29.773 20.313-50.979 12.5-64.5s-59.388-88.222-60.5-116.5c-15.072-87.054 38.902-132.66 206.5-204.5Z"
    filter="url(#b)" />

  <path fill="transparent" stroke="#FF7B8A" strokeWidth="2"
    d="M628.321 179.27c48.727-52.249 33.5-138.5 35.5-145s10.209-7.534 17.5 0c47.072 77.433 30.179 145-10 202-40.178 57-144.5 126-161.5 145s-15.559 40.385-5.5 92c12.194 45.113 39 118.5 50 133.5s-.275 19.473-11.5 15-75.745-76.548-76-77.5c-80.42-95.302-54.492-187.018 2.5-238 56.993-50.981 110.274-74.75 159-127Z"
    filter="url(#b)" />
</svg>

